<?xml version="1.0" encoding="UTF-8"?>
<svg version="1.1" xmlns="http://www.w3.org/2000/svg" width="64" height="64">
<path d="M0 0 C2.03228685 0.00315497 4.06310792 -0.0203206 6.09521484 -0.0456543 C20.94430144 -0.05301262 20.94430144 -0.05301262 27.19287109 4.92895508 C27.63888672 5.48969727 28.08490234 6.05043945 28.54443359 6.62817383 C29.00591797 7.18118164 29.46740234 7.73418945 29.94287109 8.30395508 C33.92340472 14.83253729 33.50911644 21.75324003 33.48510742 29.14624023 C33.48195245 31.17852708 33.50542802 33.20934816 33.53076172 35.24145508 C33.53812004 50.09054168 33.53812004 50.09054168 28.55615234 56.33911133 C27.99541016 56.78512695 27.43466797 57.23114258 26.85693359 57.69067383 C26.30392578 58.1521582 25.75091797 58.61364258 25.18115234 59.08911133 C18.65257013 63.06964495 11.73186739 62.65535668 4.33886719 62.63134766 C2.30658034 62.62819269 0.27575927 62.65166826 -1.75634766 62.67700195 C-16.60543426 62.68436027 -16.60543426 62.68436027 -22.85400391 57.70239258 C-23.30001953 57.14165039 -23.74603516 56.5809082 -24.20556641 56.00317383 C-24.66705078 55.45016602 -25.12853516 54.8971582 -25.60400391 54.32739258 C-29.58453753 47.79881036 -29.17024926 40.87810762 -29.14624023 33.48510742 C-29.14308526 31.45282057 -29.16656083 29.4219995 -29.19189453 27.38989258 C-29.19925285 12.54080598 -29.19925285 12.54080598 -24.21728516 6.29223633 C-23.65654297 5.8462207 -23.09580078 5.40020508 -22.51806641 4.94067383 C-21.96505859 4.47918945 -21.41205078 4.01770508 -20.84228516 3.54223633 C-14.31370294 -0.43829729 -7.3930002 -0.02400902 0 0 Z " fill="#EE7068" transform="translate(29.83056640625,0.684326171875)"/>
<path d="M0 0 C2.03228685 0.00315497 4.06310792 -0.0203206 6.09521484 -0.0456543 C20.94430144 -0.05301262 20.94430144 -0.05301262 27.19287109 4.92895508 C27.63888672 5.48969727 28.08490234 6.05043945 28.54443359 6.62817383 C29.00591797 7.18118164 29.46740234 7.73418945 29.94287109 8.30395508 C33.92340472 14.83253729 33.50911644 21.75324003 33.48510742 29.14624023 C33.48195245 31.17852708 33.50542802 33.20934816 33.53076172 35.24145508 C33.53812004 50.09054168 33.53812004 50.09054168 28.55615234 56.33911133 C27.99541016 56.78512695 27.43466797 57.23114258 26.85693359 57.69067383 C26.30392578 58.1521582 25.75091797 58.61364258 25.18115234 59.08911133 C18.65257013 63.06964495 11.73186739 62.65535668 4.33886719 62.63134766 C2.30658034 62.62819269 0.27575927 62.65166826 -1.75634766 62.67700195 C-16.60543426 62.68436027 -16.60543426 62.68436027 -22.85400391 57.70239258 C-23.30001953 57.14165039 -23.74603516 56.5809082 -24.20556641 56.00317383 C-24.66705078 55.45016602 -25.12853516 54.8971582 -25.60400391 54.32739258 C-29.58453753 47.79881036 -29.17024926 40.87810762 -29.14624023 33.48510742 C-29.14308526 31.45282057 -29.16656083 29.4219995 -29.19189453 27.38989258 C-29.19925285 12.54080598 -29.19925285 12.54080598 -24.21728516 6.29223633 C-23.65654297 5.8462207 -23.09580078 5.40020508 -22.51806641 4.94067383 C-21.96505859 4.47918945 -21.41205078 4.01770508 -20.84228516 3.54223633 C-14.31370294 -0.43829729 -7.3930002 -0.02400902 0 0 Z M-19.83056641 7.31567383 C-25.88506617 14.61212226 -25.04358725 21.98729078 -25.08056641 31.06567383 C-25.10119141 32.31606445 -25.12181641 33.56645508 -25.14306641 34.85473633 C-25.17204673 41.70858377 -24.97707826 47.16265885 -21.83056641 53.31567383 C-14.53411798 59.37017359 -7.15894946 58.52869467 1.91943359 58.56567383 C3.16982422 58.58629883 4.42021484 58.60692383 5.70849609 58.62817383 C12.56234354 58.65715416 18.01641861 58.46218568 24.16943359 55.31567383 C30.22393335 48.0192254 29.38245444 40.64405688 29.41943359 31.56567383 C29.44005859 30.3152832 29.46068359 29.06489258 29.48193359 27.77661133 C29.51091392 20.92276389 29.31594545 15.46868881 26.16943359 9.31567383 C18.87298517 3.26117407 11.49781665 4.10265299 2.41943359 4.06567383 C0.54384766 4.03473633 0.54384766 4.03473633 -1.36962891 4.00317383 C-8.22347635 3.9741935 -13.67755142 4.16916197 -19.83056641 7.31567383 Z " fill="#FEFEFE" transform="translate(29.83056640625,0.684326171875)"/>
<path d="M0 0 C5.28 0 10.56 0 16 0 C16 1.32 16 2.64 16 4 C10.39 4 4.78 4 -1 4 C-0.67 2.68 -0.34 1.36 0 0 Z " fill="#FEFEFE" transform="translate(32,40)"/>
<path d="M0 0 C5.61 0 11.22 0 17 0 C17 1.32 17 2.64 17 4 C11.72 4 6.44 4 1 4 C0.67 2.68 0.34 1.36 0 0 Z " fill="#FEFEFE" transform="translate(31,22)"/>
<path d="M0 0 C0.99 0.33 1.98 0.66 3 1 C2.52753358 5.25219775 0.22727623 7.37314725 -3 10 C-5.1875 10.0625 -5.1875 10.0625 -7 9 C-8.25 6.9375 -8.25 6.9375 -9 5 C-8.071875 4.731875 -7.14375 4.46375 -6.1875 4.1875 C-3.23759634 3.08851629 -1.94384814 2.37581439 0 0 Z " fill="#FEFDFD" transform="translate(24,36)"/>
<path d="M0 0 C1.32 0 2.64 0 4 0 C3.42424336 3.35250701 2.40693737 4.93818629 -0.0625 7.25 C-0.88427734 8.03117187 -0.88427734 8.03117187 -1.72265625 8.828125 C-2.14417969 9.21484375 -2.56570312 9.6015625 -3 10 C-4.32 9.34 -5.64 8.68 -7 8 C-7 6.68 -7 5.36 -7 4 C-5.824375 3.566875 -5.824375 3.566875 -4.625 3.125 C-1.90328368 2.15087746 -1.90328368 2.15087746 0 0 Z " fill="#FEF8F7" transform="translate(23,18)"/>
</svg>
